<?xml version="1.0" encoding="UTF-8"?>
<!-- Generator: Adobe Illustrator 23.0.1, SVG Export Plug-In . SVG Version: 6.00 Build 0)  -->
<!DOCTYPE svg PUBLIC "-//W3C//DTD SVG 1.1//EN" "http://www.w3.org/Graphics/SVG/1.1/DTD/svg11.dtd">
<svg version="1.1" id="Livello_1" xmlns:x="http://ns.adobe.com/Extensibility/1.0/" xmlns:i="http://ns.adobe.com/AdobeIllustrator/10.0/" xmlns:graph="http://ns.adobe.com/Graphs/1.0/" xmlns="http://www.w3.org/2000/svg" xmlns:xlink="http://www.w3.org/1999/xlink" x="0px" y="0px" viewBox="0 0 343.178 500" enable-background="new 0 0 343.178 500" xml:space="preserve">
<metadata>
	<sfw xmlns="http://ns.adobe.com/SaveForWeb/1.0/">
		<slices/>
		<sliceSourceBounds bottomLeftOrigin="true" height="500" width="343.178" x="-997.899" y="818.969"/>
	</sfw>
</metadata>
<g>
	<rect fill="#FFFFFF" width="343.178" height="500"/>
	<rect x="3.693" y="3.692" fill="#091C3E" width="335.793" height="492.609"/>
	<g>
		<path fill="#FFFFFF" d="M203.926,178.828c0,17.775-14.559,32.339-32.339,32.339c-17.775,0-32.333-14.564-32.333-32.339    c0-17.775,14.559-32.333,32.333-32.333C189.367,146.494,203.926,161.053,203.926,178.828"/>
		<path fill="#15FFCF" d="M107.299,170.835c0.623-35.985,31.722-64.726,69.318-64.073c7.238,0.129,14.7,1.47,21.803,4.234    l22.408-38.472c-13.747-5.845-28.37-8.003-43.47-8.261c-61.95-1.082-113.187,46.386-114.222,105.802    c-0.582,33.55,15.217,66.325,44.128,87.633l22.002-37.807C115.031,207.243,106.975,189.439,107.299,170.835"/>
		<path fill="#15FFCF" d="M235.886,187.274c-0.623,35.985-31.722,64.726-69.318,64.067c-7.238-0.124-14.706-1.47-21.808-4.228    l-22.402,38.472c13.747,5.845,28.37,7.997,43.47,8.261c61.95,1.076,113.181-46.392,114.216-105.808    c0.582-33.544-15.217-66.319-44.122-87.627l-22.002,37.807C228.148,150.866,236.209,168.671,235.886,187.274"/>
	</g>
	<g>
		<path fill-rule="evenodd" clip-rule="evenodd" fill="#8EC740" d="M120.951,442.715c9.813,0,16.334-6.138,17.839-15.693    l6.715-43.258h-37.643c-9.843,0-16.358,6.138-17.834,15.693l-6.721,43.258H120.951z"/>
		<path fill-rule="evenodd" clip-rule="evenodd" fill="#0EB04B" d="M176.172,442.715c9.843,0,16.358-6.138,17.839-15.693    l6.715-43.258h-37.643c-9.843,0-16.358,6.138-17.839,15.693l-6.715,43.258H176.172z"/>
		<path fill-rule="evenodd" clip-rule="evenodd" fill="#00854B" d="M231.39,442.715c9.843,0,16.358-6.138,17.839-15.693    l6.715-43.258h-37.643c-9.843,0-16.358,6.138-17.834,15.693l-6.721,43.258H231.39z"/>
		<path fill-rule="evenodd" clip-rule="evenodd" fill="#FFFFFF" d="M128.478,411.848v-0.083h0.059    c5.703-1.135,8.426-3.998,7.879-8.402c-0.612-5.01-4.892-7.644-15.435-7.644H95.992l-5.821,34.803h27.912    c10.631,0,19.603-3.298,18.592-11.695C136.298,415.611,133.052,412.542,128.478,411.848 M115.795,422.273h-9.614l1.158-6.486    h8.226c3.128,0,5.821,0.406,6.139,2.981C122.051,421.579,118.459,422.273,115.795,422.273 M116.753,409.302h-8.426l0.841-5.269    h7.697c2.64,0,4.663,0.4,4.927,2.487C122.051,408.661,119.129,409.302,116.753,409.302 M176.981,395.719l-14.852,11.584    l-0.147-0.118l1.911-11.466H149.24l-5.674,34.832h14.623l1.646-10.19l4.61-3.305l10.307,13.494h16.446l-16.158-20.468    l20.997-14.365H176.981z M206.139,395.719l-1.476,8.949h13.465l-4.316,25.883h14.97l4.316-25.883h13.494l1.505-8.949H206.139z"/>
	</g>
	<path fill="#FEFFFF" d="M142.314,359.243c-1.588,0.782-3.498,1.147-5.686,1.147c-6.503,0-11.695-4.474-11.695-10.983   c0-6.456,4.751-10.519,11.642-10.519c4.78,0,7.891,0.823,10.978,2.293l2.27-7.956c-2.669-1.429-7.509-2.563-13.524-2.563   c-12.459,0-20.879,8.279-20.879,18.745c0,10.513,8.42,18.792,20.662,18.792c8.255,0,12.847-2.916,14.706-4.527v-14.888   l-8.473,1.123V359.243z M73.825,331.132h-9.184v36.596h26.677v-7.65H73.825V331.132z M97.933,367.728h9.184v-36.602h-9.184V367.728   z M213.049,352.675h14.312v-7.226h-14.312v-6.615h17.575v-7.703h-26.759v36.596h27.271v-7.65h-18.086V352.675z M184.731,352.322   c0,4.057-2.405,8.067-8.255,8.067c-5.792,0-8.144-4.01-8.144-8.067v-21.191h-9.184v20.515c0,10.878,6.944,16.552,17.328,16.552   c10.496,0,17.44-5.674,17.44-16.552v-20.515h-9.184V352.322z M265.891,360.101l0.135-0.159l7.409-8.684   c2.752-3.275,4.034-6.209,4.034-9.231c0-3.228-1.211-5.98-3.493-7.961c-2.599-2.258-6.397-3.399-11.295-3.399   c-8.161,0-13.147,4.21-13.741,4.745l4.704,6.838c2.246-1.758,4.398-3.211,7.773-3.211c3.21,0,5.539,2.07,5.539,4.921   c0,1.764-0.664,2.834-2.811,5.368l-14.353,16.804v1.594h28.747v-7.627H265.891z"/>
</g>
</svg>